<?xml version="1.0" encoding="UTF-8"?> <svg xmlns="http://www.w3.org/2000/svg" width="18" height="18" viewBox="0 0 18 18" fill="none"><path d="M9.08984 4.50781C11.5508 4.50781 13.582 6.53906 13.582 9C13.582 11.5 11.5508 13.4922 9.08984 13.4922C6.58984 13.4922 4.59766 11.5 4.59766 9C4.59766 6.53906 6.58984 4.50781 9.08984 4.50781ZM9.08984 11.9297C10.6914 11.9297 11.9805 10.6406 11.9805 9C11.9805 7.39844 10.6914 6.10938 9.08984 6.10938C7.44922 6.10938 6.16016 7.39844 6.16016 9C6.16016 10.6406 7.48828 11.9297 9.08984 11.9297ZM14.793 4.35156C14.793 4.9375 14.3242 5.40625 13.7383 5.40625C13.1523 5.40625 12.6836 4.9375 12.6836 4.35156C12.6836 3.76562 13.1523 3.29688 13.7383 3.29688C14.3242 3.29688 14.793 3.76562 14.793 4.35156ZM17.7617 5.40625C17.8398 6.85156 17.8398 11.1875 17.7617 12.6328C17.6836 14.0391 17.3711 15.25 16.3555 16.3047C15.3398 17.3203 14.0898 17.6328 12.6836 17.7109C11.2383 17.7891 6.90234 17.7891 5.45703 17.7109C4.05078 17.6328 2.83984 17.3203 1.78516 16.3047C0.769531 15.25 0.457031 14.0391 0.378906 12.6328C0.300781 11.1875 0.300781 6.85156 0.378906 5.40625C0.457031 4 0.769531 2.75 1.78516 1.73438C2.83984 0.71875 4.05078 0.40625 5.45703 0.328125C6.90234 0.25 11.2383 0.25 12.6836 0.328125C14.0898 0.40625 15.3398 0.71875 16.3555 1.73438C17.3711 2.75 17.6836 4 17.7617 5.40625ZM15.8867 14.1562C16.3555 13.0234 16.2383 10.2891 16.2383 9C16.2383 7.75 16.3555 5.01562 15.8867 3.84375C15.5742 3.10156 14.9883 2.47656 14.2461 2.20312C13.0742 1.73438 10.3398 1.85156 9.08984 1.85156C7.80078 1.85156 5.06641 1.73438 3.93359 2.20312C3.15234 2.51562 2.56641 3.10156 2.25391 3.84375C1.78516 5.01562 1.90234 7.75 1.90234 9C1.90234 10.2891 1.78516 13.0234 2.25391 14.1562C2.56641 14.9375 3.15234 15.5234 3.93359 15.8359C5.06641 16.3047 7.80078 16.1875 9.08984 16.1875C10.3398 16.1875 13.0742 16.3047 14.2461 15.8359C14.9883 15.5234 15.6133 14.9375 15.8867 14.1562Z" fill="#3B78B9"></path></svg> 