<?xml version="1.0" encoding="UTF-8"?> <svg xmlns="http://www.w3.org/2000/svg" width="19" height="18" viewBox="0 0 19 18" fill="none"><path d="M17.0098 0.25C17.6738 0.25 18.2598 0.835938 18.2598 1.53906V16.5C18.2598 17.2031 17.6738 17.75 17.0098 17.75H1.9707C1.30664 17.75 0.759766 17.2031 0.759766 16.5V1.53906C0.759766 0.835938 1.30664 0.25 1.9707 0.25H17.0098ZM6.0332 15.25V6.92969H3.45508V15.25H6.0332ZM4.74414 5.75781C5.56445 5.75781 6.22852 5.09375 6.22852 4.27344C6.22852 3.45312 5.56445 2.75 4.74414 2.75C3.88477 2.75 3.2207 3.45312 3.2207 4.27344C3.2207 5.09375 3.88477 5.75781 4.74414 5.75781ZM15.7598 15.25V10.6797C15.7598 8.45312 15.252 6.69531 12.6348 6.69531C11.3848 6.69531 10.5254 7.39844 10.1738 8.0625H10.1348V6.92969H7.67383V15.25H10.252V11.1484C10.252 10.0547 10.4473 9 11.8145 9C13.1426 9 13.1426 10.25 13.1426 11.1875V15.25H15.7598Z" fill="#3B78B9"></path></svg> 