<?xml version="1.0" encoding="UTF-8"?> <svg xmlns="http://www.w3.org/2000/svg" width="20" height="20" viewBox="0 0 20 20" fill="none"><path d="M9.87744 0.3125C15.229 0.3125 19.5649 4.64844 19.5649 10C19.5649 15.3516 15.229 19.6875 9.87744 19.6875C4.52588 19.6875 0.189941 15.3516 0.189941 10C0.189941 4.64844 4.52588 0.3125 9.87744 0.3125ZM14.604 6.95312C14.7603 6.32812 14.3696 6.05469 13.9399 6.21094L4.604 9.80469C3.979 10.0391 3.979 10.4297 4.48682 10.5859L6.86963 11.3281L12.4165 7.8125C12.6899 7.65625 12.9243 7.77344 12.729 7.92969L8.23682 11.9922L8.08057 14.4531C8.31494 14.4531 8.43213 14.3359 8.54932 14.2188L9.72119 13.0859L12.1431 14.8828C12.6118 15.1172 12.9243 15 13.0415 14.4531L14.604 6.95312Z" fill="#3B78B9"></path></svg> 